<?xml version="1.0" encoding="UTF-8" standalone="no"?>
<!DOCTYPE svg PUBLIC "-//W3C//DTD SVG 1.1//EN" "http://www.w3.org/Graphics/SVG/1.1/DTD/svg11.dtd">
<svg width="100%" height="100%" viewBox="0 0 180 180" version="1.1" xmlns="http://www.w3.org/2000/svg" xmlns:xlink="http://www.w3.org/1999/xlink" xml:space="preserve" xmlns:serif="http://www.serif.com/" style="fill-rule:evenodd;clip-rule:evenodd;stroke-linejoin:round;stroke-miterlimit:2;">
    <g id="flux_x_favicon.jpg" transform="matrix(1,0,0,1,3,22)">
        <path d="M65.28,50.615C62.931,48.35 9.437,4.538 9.959,3.614C10.827,2.075 27.254,2.71 27.447,2.741C31.114,3.325 81.738,49.885 97.236,62.842C100.171,65.296 97.342,65.84 84.501,77.501C55.623,103.726 54.638,102.482 25.584,128.596C20.274,133.368 19.531,131.637 12.483,132.348C10.425,132.106 10.501,132.13 8.503,132.422C2.868,132.068 2.764,131.908 2.498,131.501C2.189,131.027 2.572,131.033 7.547,126.551C19.966,115.363 20.805,116.457 33.215,105.166C62.629,78.405 64.921,80.053 65.295,76.639C70.342,75.954 69.671,74.563 78.804,66.865C81.762,64.371 81.164,63.368 78.137,60.931C72.554,56.436 72.708,56.413 67.226,51.944L65.28,50.615Z" style="fill:rgb(254,84,46);fill-opacity:0.99;"/>
        <path d="M87.503,32.581C88.786,34.44 89.689,35.75 108.78,51.137C110.052,52.018 114.55,55.135 123.784,63.329C125.832,65.145 117.718,69.852 111.506,75.506C110.61,76.119 108.565,77.517 100.894,83.961C87.636,95.098 88.353,95.749 88.3,95.846C82.656,98.036 47.644,131.385 42.483,132.317C40.15,132.739 36.456,131.797 30.501,132.388C23.779,133.055 47.371,115.37 57.569,105.576C69.585,94.035 70.412,95.057 82.585,83.59C84.152,82.114 93.499,73.309 102.806,65.837C105.656,63.549 103.043,62.513 70.083,33.962C35.936,4.384 35.181,4.389 35.641,3.552C36.175,2.578 36.442,2.36 49.488,2.634C53.239,2.713 81.481,29.622 87.503,32.581Z" style="fill:rgb(254,85,46);fill-opacity:0.99;"/>
        <path d="M111.506,75.506C108.962,78.946 114.461,80.609 121.2,86.828C121.872,87.449 134.5,98.319 135.659,99.316C139.729,102.82 143.479,105.373 144.189,105.858C145.732,106.908 145.37,107.303 161.659,121.313C164.373,123.647 177.252,132.181 170.545,131.921C153.367,131.257 132.321,133.585 128.818,130.172C124.407,125.875 113.776,118.058 88.3,95.846C88.353,95.749 87.636,95.098 100.894,83.961C108.565,77.517 110.61,76.119 111.506,75.506Z" style="fill:rgb(23,41,43);fill-opacity:0.99;"/>
        <path d="M87.503,32.581C95.787,28.189 94.453,26.489 102.223,21.108C102.642,20.818 109.7,14.867 110.347,14.321C110.462,14.225 113.135,11.605 113.377,11.368C113.449,11.297 120.908,5.674 123.383,3.367C125.4,1.486 165.428,2.276 166.089,2.986C167.218,4.199 165.506,3.913 159.614,9.623C159.093,10.128 147.654,18.742 141.195,25.189C140.066,26.315 139.655,25.752 134.614,30.623C126.925,38.053 125.794,36.631 118.188,44.189C112.867,49.476 109.647,50.784 108.78,51.137C89.689,35.75 88.786,34.44 87.503,32.581Z" style="fill:rgb(23,40,43);fill-opacity:0.99;"/>
        <path d="M67.226,51.944C72.708,56.413 72.554,56.436 78.137,60.931C81.164,63.368 81.762,64.371 78.804,66.865C69.671,74.563 70.342,75.954 65.295,76.639C64.441,75.733 64.268,75.948 53.362,66.659C48.172,62.239 53.7,61.952 64.432,52.43C65.363,52.268 66.295,52.106 67.226,51.944Z" style="fill:rgb(23,40,43);fill-opacity:0.99;"/>
        <path d="M65.28,50.615L67.226,51.944C66.295,52.106 65.363,52.268 64.432,52.43C65.04,51.708 64.872,51.747 65.28,50.615Z" style="fill:rgb(124,81,75);fill-opacity:0.49;"/>
        <path d="M8.503,132.422C10.501,132.13 10.425,132.106 12.483,132.348C11.157,132.373 9.83,132.397 8.503,132.422Z" style="fill:rgb(228,122,95);fill-opacity:0.31;"/>
    </g>
</svg>
